FFmpeg version SVN-r25716, Copyright (c) 2000-2010 the FFmpeg developers  built on Nov 10 2010 12:23:18 with gcc 4.1.2 20080704 (Red Hat 4.1.2-48)  configuration: --enable-libmp3lame --enable-shared --disable-mmx --arch=x86_64  libavutil     50.33. 0 / 50.33. 0  libavcore      0.12. 1 /  0.12. 1  libavcodec    52.94. 4 / 52.94. 4  libavformat   52.84. 0 / 52.84. 0  libavdevice   52. 2. 2 / 52. 2. 2  libavfilter    1.59. 0 /  1.59. 0  libswscale     0.12. 0 /  0.12. 0Input #0, avi, from '/RAID10/data/converted_video_files/47385.avi':  Duration: 00:00:08.80, start: 0.000000, bitrate: 20978 kb/s    Stream #0.0: Video: msvideo1, rgb555le, 1024x1024, 20 tbr, 20 tbn, 20 tbc[buffer @ 0x15cdc2f0] w:1024 h:1024 pixfmt:rgb555le[ffsink @ 0x15cf9b60] auto-inserting filter 'auto-inserted scaler 0' between the filter 'src' and the filter 'out'[scale @ 0x15cf9e80] w:1024 h:1024 fmt:rgb555le -> w:1024 h:1024 fmt:yuv420p flags:0x4Output #0, flv, to '/RAID10/data/converted_video_files/47385.flv':  Metadata:    encoder         : Lavf52.84.0    Stream #0.0: Video: flv, yuv420p, 1024x1024, q=2-31, 600 kb/s, 1k tbn, 24 tbcStream mapping:  Stream #0.0 -> #0.0Press [q] to stop encodingframe=    8 fps=  0 q=12.3 size=     566kB time=0.37 bitrate=12407.3kbits/s    frame=   17 fps= 15 q=31.0 size=     614kB time=0.83 bitrate=6040.1kbits/s    frame=   28 fps= 17 q=31.0 size=     650kB time=1.38 bitrate=3871.2kbits/s    frame=   38 fps= 18 q=31.0 size=     685kB time=1.87 bitrate=2994.8kbits/s    frame=   48 fps= 18 q=31.0 size=     693kB time=2.38 bitrate=2391.8kbits/s    frame=   59 fps= 19 q=31.0 size=     730kB time=2.96 bitrate=2021.4kbits/s    frame=   68 fps= 18 q=31.0 size=     764kB time=3.37 bitrate=1855.1kbits/s    frame=   74 fps= 17 q=31.0 size=     796kB time=3.71 bitrate=1758.9kbits/s    frame=   81 fps= 17 q=31.0 size=     802kB time=4.04 bitrate=1624.5kbits/s    frame=   87 fps= 17 q=31.0 size=     833kB time=4.33 bitrate=1573.9kbits/s    frame=   93 fps= 16 q=31.0 size=     839kB time=4.62 bitrate=1485.9kbits/s    frame=   99 fps= 16 q=31.0 size=     871kB time=4.96 bitrate=1438.6kbits/s    frame=  105 fps= 15 q=31.0 size=     875kB time=5.25 bitrate=1366.0kbits/s    frame=  113 fps= 15 q=31.0 size=     909kB time=5.62 bitrate=1324.5kbits/s    frame=  121 fps= 15 q=24.8 size=     943kB time=6.04 bitrate=1278.4kbits/s    frame=  130 fps= 15 q=31.0 size=     950kB time=6.50 bitrate=1197.8kbits/s    frame=  139 fps= 16 q=31.0 size=     987kB time=6.96 bitrate=1161.3kbits/s    frame=  146 fps= 15 q=31.0 size=    1021kB time=7.29 bitrate=1147.1kbits/s    frame=  153 fps= 15 q=31.0 size=    1028kB time=7.62 bitrate=1104.8kbits/s    frame=  163 fps= 15 q=31.0 size=    1063kB time=8.12 bitrate=1072.0kbits/s    frame=  173 fps= 16 q=31.0 size=    1098kB time=8.62 bitrate=1042.7kbits/s    frame=  176 fps= 16 q=31.0 Lsize=    1100kB time=8.79 bitrate=1025.2kbits/s    video:1097kB audio:0kB global headers:0kB muxing overhead 0.269319%